<?xml version="1.0" encoding="utf-8"?>
<!-- Generator: Adobe Illustrator 16.0.0, SVG Export Plug-In . SVG Version: 6.00 Build 0)  -->
<!DOCTYPE svg PUBLIC "-//W3C//DTD SVG 1.1//EN" "http://www.w3.org/Graphics/SVG/1.1/DTD/svg11.dtd">
<svg version="1.1" xmlns="http://www.w3.org/2000/svg" xmlns:xlink="http://www.w3.org/1999/xlink" x="0px" y="0px" width="209.5px"
	 height="51.5px" viewBox="0 0 209.5 51.5" enable-background="new 0 0 209.5 51.5" xml:space="preserve">
<g id="Layer_1">
	<g>
		<g>
			<path fill="#139CD3" d="M6.315,35.597H3.524V7.124h2.791v24.829L31.997,6.327l1.936,1.937L6.315,35.597z"/>
			<path fill="#139CD3" d="M35.07,4.846V2h2.847v2.846H35.07z M35.07,35.597V7.124h2.847v28.473H35.07z"/>
			<path fill="#139CD3" d="M44.124,35.597h-2.79V7.124h2.79v24.829L69.806,6.327l1.937,1.937L44.124,35.597z"/>
			<path fill="#139CD3" d="M87.117,7.124c1.935,0,3.758,0.37,5.466,1.111c1.708,0.74,3.216,1.746,4.528,3.018
				c1.31,1.271,2.343,2.78,3.103,4.527c0.76,1.747,1.139,3.607,1.139,5.581c0,2.012-0.379,3.881-1.139,5.608
				c-0.76,1.729-1.793,3.228-3.103,4.499c-1.312,1.273-2.82,2.277-4.528,3.019c-1.708,0.74-3.531,1.11-5.466,1.11
				c-2.014,0-3.883-0.37-5.61-1.11c-1.728-0.741-3.227-1.746-4.498-3.019c-1.272-1.271-2.278-2.771-3.018-4.499
				c-0.741-1.728-1.111-3.597-1.111-5.608c0-1.974,0.37-3.834,1.111-5.581c0.739-1.747,1.746-3.256,3.018-4.527
				c1.271-1.272,2.77-2.277,4.498-3.018C83.234,7.494,85.104,7.124,87.117,7.124z M87.117,32.749c1.555,0,3.026-0.303,4.412-0.911
				c1.385-0.607,2.591-1.424,3.616-2.448c1.026-1.025,1.84-2.231,2.449-3.616c0.606-1.385,0.911-2.856,0.911-4.413
				c0-1.557-0.304-3.028-0.911-4.414c-0.609-1.384-1.423-2.591-2.449-3.616c-1.025-1.025-2.231-1.84-3.616-2.448
				c-1.386-0.608-2.857-0.912-4.412-0.912c-1.559,0-3.028,0.304-4.415,0.912c-1.385,0.607-2.59,1.423-3.615,2.448
				s-1.842,2.231-2.448,3.616c-0.608,1.386-0.911,2.857-0.911,4.414c0,1.557,0.302,3.028,0.911,4.413
				c0.606,1.385,1.423,2.591,2.448,3.616c1.025,1.024,2.23,1.841,3.615,2.448C84.089,32.445,85.559,32.749,87.117,32.749z"/>
			<path fill="#7EAF12" d="M119.004,7.124c1.975,0,3.834,0.37,5.582,1.111c1.747,0.74,3.255,1.746,4.527,3.018
				c1.271,1.271,2.277,2.78,3.018,4.527c0.741,1.747,1.11,3.607,1.11,5.581c0,2.012-0.369,3.881-1.11,5.608
				c-0.74,1.729-1.746,3.228-3.018,4.499c-1.272,1.273-2.781,2.277-4.527,3.019c-1.747,0.74-3.606,1.11-5.582,1.11
				c-2.011,0-3.88-0.37-5.607-1.11c-1.729-0.741-3.229-1.746-4.499-3.019c-1.273-1.271-2.277-2.771-3.019-4.499
				c-0.74-1.728-1.11-3.597-1.11-5.608V2h2.848v10.818c1.291-1.709,2.942-3.084,4.954-4.128
				C114.583,7.647,116.727,7.124,119.004,7.124z M119.004,32.749c1.557,0,3.028-0.303,4.415-0.911
				c1.383-0.607,2.59-1.424,3.615-2.448c1.025-1.025,1.84-2.231,2.448-3.616c0.607-1.385,0.912-2.856,0.912-4.413
				c0-1.557-0.304-3.028-0.912-4.414c-0.607-1.384-1.423-2.591-2.448-3.616s-2.232-1.84-3.615-2.448
				c-1.387-0.608-2.858-0.912-4.415-0.912c-1.557,0-3.027,0.304-4.412,0.912c-1.386,0.607-2.591,1.423-3.616,2.448
				s-1.842,2.231-2.449,3.616c-0.607,1.386-0.911,2.857-0.911,4.414c0,1.557,0.303,3.028,0.911,4.413
				c0.607,1.385,1.424,2.591,2.449,3.616c1.025,1.024,2.23,1.841,3.616,2.448C115.977,32.445,117.448,32.749,119.004,32.749z"/>
			<path fill="#7EAF12" d="M136.658,4.846V2h2.847v2.846H136.658z M136.658,35.597V7.124h2.847v28.473H136.658z"/>
			<path fill="#7EAF12" d="M157.157,32.749c2.43,0,4.576-0.645,6.435-1.936c1.86-1.29,3.226-3.019,4.1-5.181h3.131
				c-0.494,1.442-1.186,2.77-2.078,3.984c-0.893,1.216-1.936,2.26-3.132,3.132c-1.196,0.874-2.516,1.566-3.958,2.078
				c-1.443,0.513-2.942,0.77-4.499,0.77c-2.012,0-3.881-0.37-5.608-1.11c-1.729-0.741-3.229-1.746-4.499-3.019
				c-1.273-1.271-2.277-2.771-3.019-4.499c-0.74-1.728-1.111-3.597-1.111-5.608c0-1.974,0.371-3.834,1.111-5.581
				c0.741-1.747,1.745-3.256,3.019-4.527c1.271-1.272,2.77-2.277,4.499-3.018c1.727-0.741,3.596-1.111,5.608-1.111
				c1.975,0,3.834,0.37,5.581,1.111c1.747,0.74,3.255,1.746,4.528,3.018c1.272,1.271,2.277,2.78,3.017,4.527
				c0.741,1.747,1.11,3.607,1.11,5.581v1.423h-5.124h-20.5c0.228,1.444,0.673,2.773,1.336,3.986c0.665,1.216,1.51,2.26,2.535,3.132
				c1.025,0.874,2.173,1.566,3.445,2.08C154.357,32.494,155.713,32.749,157.157,32.749z M157.157,9.971
				c-1.444,0-2.799,0.257-4.071,0.77c-1.272,0.512-2.42,1.206-3.445,2.078c-1.025,0.874-1.87,1.927-2.535,3.16
				c-0.663,1.235-1.109,2.554-1.336,3.958h22.777c-0.228-1.404-0.675-2.723-1.338-3.958c-0.665-1.233-1.509-2.286-2.534-3.16
				c-1.025-0.873-2.184-1.566-3.474-2.078C159.909,10.228,158.562,9.971,157.157,9.971z"/>
			<path fill="#7EAF12" d="M189.046,7.124c1.937,0,3.757,0.38,5.466,1.14c1.709,0.76,3.218,1.792,4.527,3.103
				c1.311,1.31,2.343,2.818,3.104,4.526c0.758,1.709,1.138,3.531,1.138,5.468v14.236h-2.846V21.36c0-1.557-0.304-3.028-0.912-4.414
				c-0.608-1.384-1.424-2.591-2.449-3.616s-2.23-1.84-3.616-2.448c-1.386-0.608-2.856-0.912-4.413-0.912
				c-1.557,0-3.028,0.304-4.413,0.912c-1.386,0.607-2.591,1.423-3.616,2.448s-1.841,2.231-2.45,3.616
				c-0.606,1.386-0.911,2.857-0.911,4.414v14.236h-2.847V21.36c0-1.937,0.371-3.758,1.111-5.468c0.74-1.708,1.746-3.216,3.019-4.526
				c1.271-1.311,2.77-2.343,4.497-3.103C185.164,7.504,187.034,7.124,189.046,7.124z"/>
		</g>
		<g>
			<path fill="#3D3D3D" d="M110.799,45.66c0,0.087-0.026,0.148-0.087,0.2c-0.738,0.687-1.503,0.895-2.215,0.895
				c-1.833,0-3.171-1.338-3.171-3.119c0-1.772,1.373-3.119,3.214-3.119c0.539,0,1.138,0.139,1.642,0.365
				c0.156,0.07,0.217,0.174,0.183,0.304c-0.035,0.131-0.156,0.217-0.321,0.156c-0.296-0.104-0.687-0.33-1.478-0.33
				c-1.564,0-2.641,1.208-2.641,2.624c0,1.451,1.025,2.624,2.571,2.624c0.556,0,1.208-0.148,1.798-0.661v-1.477h-1.477
				c-0.157,0-0.252-0.096-0.252-0.234c0-0.139,0.096-0.226,0.252-0.226h1.738c0.147,0,0.243,0.095,0.243,0.244V45.66z"/>
			<path fill="#3D3D3D" d="M112.494,44.618c0.035,1.016,0.765,1.685,1.868,1.685c0.503,0,0.833-0.121,1.216-0.27
				c0.165-0.061,0.287,0.018,0.322,0.139c0.035,0.113-0.026,0.218-0.148,0.269c-0.417,0.174-0.842,0.305-1.442,0.305
				c-1.46,0-2.389-0.964-2.389-2.32c0-1.312,0.877-2.337,2.25-2.337c1.599,0,2.033,1.286,2.033,2.242
				c0,0.183-0.113,0.287-0.304,0.287H112.494z M115.7,44.209c0-0.634-0.277-1.677-1.511-1.677c-0.99,0-1.643,0.704-1.694,1.677
				H115.7z"/>
			<path fill="#3D3D3D" d="M117.968,43.132c0.086-0.312,0.591-1.042,1.642-1.042c1.068,0,1.72,0.678,1.72,1.947v2.389
				c0,0.183-0.13,0.278-0.27,0.278c-0.147,0-0.269-0.096-0.269-0.278v-2.406c0-0.921-0.461-1.477-1.294-1.477
				c-1.034,0-1.495,0.895-1.495,1.633v2.25c0,0.183-0.113,0.278-0.261,0.278s-0.278-0.096-0.278-0.278v-4.048
				c0-0.157,0.078-0.243,0.217-0.243c0.13,0,0.218,0.069,0.226,0.217L117.968,43.132z"/>
			<path fill="#3D3D3D" d="M123.025,41.047c0.018-0.139,0.113-0.217,0.243-0.217c0.148,0,0.226,0.095,0.226,0.234v1.094h1.129
				c0.166,0,0.244,0.079,0.244,0.2c0,0.113-0.078,0.208-0.244,0.208h-1.129v2.85c0,0.695,0.2,0.895,0.729,0.895
				c0.165,0,0.278-0.035,0.374-0.052c0.13-0.026,0.261,0.035,0.261,0.19c0,0.069-0.035,0.157-0.147,0.2
				c-0.165,0.061-0.365,0.096-0.6,0.096c-0.86,0-1.156-0.435-1.156-1.356v-2.823h-0.486c-0.139,0-0.218-0.061-0.218-0.182
				c0-0.096,0.053-0.157,0.174-0.174l0.53-0.053L123.025,41.047z"/>
			<path fill="#3D3D3D" d="M126.179,44.618c0.035,1.016,0.765,1.685,1.868,1.685c0.503,0,0.833-0.121,1.216-0.27
				c0.165-0.061,0.287,0.018,0.321,0.139c0.035,0.113-0.026,0.218-0.148,0.269c-0.417,0.174-0.842,0.305-1.442,0.305
				c-1.46,0-2.389-0.964-2.389-2.32c0-1.312,0.877-2.337,2.25-2.337c1.599,0,2.033,1.286,2.033,2.242
				c0,0.183-0.113,0.287-0.304,0.287H126.179z M129.385,44.209c0-0.634-0.278-1.677-1.512-1.677c-0.99,0-1.642,0.704-1.694,1.677
				H129.385z"/>
			<path fill="#3D3D3D" d="M133.765,41.603c0-0.86,0.304-1.355,1.225-1.355c0.139,0,0.348,0.018,0.495,0.061
				c0.13,0.043,0.174,0.122,0.174,0.208c0,0.113-0.069,0.208-0.217,0.208c-0.096,0-0.234-0.043-0.399-0.043
				c-0.608,0-0.739,0.278-0.739,0.912v0.564h1.042c0.148,0,0.235,0.079,0.235,0.2c0,0.113-0.087,0.208-0.235,0.208h-1.042v3.857
				c0,0.183-0.122,0.278-0.26,0.278c-0.157,0-0.278-0.096-0.278-0.278v-3.857h-0.435c-0.122,0-0.208-0.069-0.208-0.182
				c0-0.096,0.06-0.174,0.191-0.183l0.452-0.044V41.603z"/>
			<path fill="#3D3D3D" d="M136.702,44.618c0.035,1.016,0.765,1.685,1.868,1.685c0.503,0,0.833-0.121,1.216-0.27
				c0.165-0.061,0.287,0.018,0.322,0.139c0.035,0.113-0.026,0.218-0.147,0.269c-0.417,0.174-0.843,0.305-1.442,0.305
				c-1.46,0-2.389-0.964-2.389-2.32c0-1.312,0.877-2.337,2.25-2.337c1.599,0,2.033,1.286,2.033,2.242
				c0,0.183-0.113,0.287-0.304,0.287H136.702z M139.907,44.209c0-0.634-0.277-1.677-1.511-1.677c-0.99,0-1.643,0.704-1.694,1.677
				H139.907z"/>
			<path fill="#3D3D3D" d="M141.707,40.569c0-0.183,0.113-0.278,0.27-0.278c0.156,0,0.27,0.095,0.27,0.278v5.447
				c0,0.226,0.113,0.278,0.278,0.278c0.061,0,0.104-0.009,0.156-0.009c0.122,0,0.191,0.078,0.191,0.191
				c0,0.113-0.086,0.183-0.182,0.217s-0.234,0.052-0.356,0.052c-0.53,0-0.625-0.391-0.625-0.678V40.569z"/>
			<path fill="#3D3D3D" d="M144.479,42.159c0.139,0,0.243,0.096,0.243,0.244v4.022c0,0.174-0.13,0.278-0.269,0.278
				c-0.156,0-0.27-0.096-0.27-0.278v-3.753l-0.295-0.078c-0.13-0.035-0.191-0.112-0.191-0.225c0-0.131,0.096-0.209,0.235-0.209
				H144.479z M144.079,40.952c0-0.226,0.165-0.331,0.339-0.331c0.183,0,0.348,0.104,0.348,0.331v0.2
				c0,0.226-0.165,0.321-0.348,0.321c-0.174,0-0.339-0.096-0.339-0.321V40.952z"/>
			<path fill="#3D3D3D" d="M149.439,42.159c0.208,0,0.321,0.096,0.321,0.27c0,0.079-0.035,0.174-0.104,0.252l-2.954,3.553
				l0.008,0.026l1.52-0.018h1.295c0.156,0,0.234,0.096,0.234,0.217s-0.078,0.217-0.243,0.217h-3.206c-0.2,0-0.322-0.113-0.322-0.27
				c0-0.078,0.035-0.165,0.104-0.251l2.98-3.554l-0.009-0.026l-1.633,0.017h-1.103c-0.157,0-0.243-0.095-0.243-0.225
				c0-0.131,0.086-0.209,0.243-0.209H149.439z"/>
			<path fill="#3D3D3D" d="M156.269,42.359c0.043-0.139,0.122-0.226,0.261-0.226c0.234,0,0.33,0.191,0.252,0.391l-1.668,4.257
				c-0.27,0.695-0.626,1.398-1.364,1.398c-0.183,0-0.331-0.009-0.522-0.078c-0.147-0.052-0.217-0.147-0.2-0.278
				c0.018-0.122,0.122-0.2,0.261-0.183c0.139,0.018,0.208,0.069,0.391,0.069c0.478,0,0.712-0.538,0.886-1.034l-1.677-4.145
				c-0.086-0.208,0.026-0.399,0.235-0.399c0.148,0,0.226,0.095,0.278,0.235l0.747,1.867c0.234,0.591,0.461,1.216,0.695,1.825h0.026
				c0.226-0.617,0.452-1.26,0.686-1.859L156.269,42.359z"/>
			<path fill="#3D3D3D" d="M160.709,43.158c0.339-0.765,1.112-1.069,1.746-1.069c1.338,0,2.181,1.034,2.181,2.329
				c0,1.26-0.825,2.329-2.172,2.329c-0.721,0-1.459-0.365-1.72-1.025v2.181c0,0.191-0.13,0.278-0.27,0.278
				c-0.156,0-0.269-0.086-0.269-0.278v-5.534c0-0.157,0.087-0.235,0.226-0.235c0.121,0,0.208,0.086,0.217,0.217L160.709,43.158z
				 M160.709,44.418c0,1.077,0.729,1.877,1.668,1.877c0.964,0,1.703-0.817,1.703-1.877c0-1.069-0.739-1.876-1.703-1.876
				C161.43,42.542,160.709,43.367,160.709,44.418z"/>
			<path fill="#3D3D3D" d="M166.47,43.054c0.191-0.469,0.695-0.93,1.199-0.93c0.2,0,0.304,0.087,0.304,0.252
				c0,0.173-0.122,0.269-0.287,0.287c-0.669,0.069-1.19,0.539-1.19,1.364v2.398c0,0.183-0.122,0.278-0.261,0.278
				c-0.156,0-0.277-0.096-0.277-0.278v-4.048c0-0.157,0.086-0.243,0.234-0.243c0.122,0,0.208,0.078,0.217,0.208L166.47,43.054z"/>
			<path fill="#3D3D3D" d="M173.317,44.409c0,1.39-1.06,2.337-2.372,2.337c-1.321,0-2.381-0.938-2.381-2.329
				c0-1.39,1.06-2.329,2.381-2.329C172.248,42.089,173.317,43.02,173.317,44.409z M169.121,44.418c0,1.112,0.791,1.877,1.815,1.877
				c1.026,0,1.825-0.765,1.825-1.877c0-1.121-0.799-1.876-1.825-1.876C169.911,42.542,169.121,43.297,169.121,44.418z"/>
			<path fill="#3D3D3D" d="M178.217,40.578c0-0.183,0.113-0.287,0.27-0.287c0.139,0,0.269,0.095,0.269,0.287v5.89
				c0,0.147-0.086,0.235-0.226,0.235c-0.13,0-0.217-0.078-0.226-0.208l-0.061-0.817c-0.33,0.704-1.034,1.069-1.755,1.069
				c-1.32,0-2.163-1.051-2.163-2.32c0-1.251,0.825-2.337,2.154-2.337c0.756,0,1.417,0.383,1.738,1V40.578z M174.881,44.427
				c0,1.068,0.704,1.868,1.686,1.868c0.964,0,1.676-0.834,1.676-1.868c0-1.06-0.729-1.885-1.676-1.885
				C175.585,42.542,174.881,43.358,174.881,44.427z"/>
			<path fill="#3D3D3D" d="M183.631,42.411c0-0.183,0.122-0.278,0.277-0.278c0.14,0,0.261,0.095,0.261,0.278v4.057
				c0,0.157-0.087,0.235-0.217,0.235c-0.104,0-0.208-0.07-0.217-0.208l-0.061-0.669c-0.313,0.625-0.877,0.921-1.547,0.921
				c-1.199,0-1.807-0.652-1.807-1.885v-2.45c0-0.183,0.122-0.278,0.269-0.278s0.27,0.095,0.27,0.278v2.406
				c0,0.913,0.374,1.478,1.39,1.478c0.756,0,1.381-0.635,1.381-1.46V42.411z"/>
			<path fill="#3D3D3D" d="M188.939,42.263c0.147,0.052,0.191,0.13,0.191,0.209c0,0.13-0.104,0.278-0.304,0.217
				c-0.261-0.078-0.504-0.165-0.895-0.165c-1.277,0-1.903,0.913-1.903,1.894c0,0.982,0.625,1.877,1.903,1.877
				c0.443,0,0.677-0.07,0.921-0.139c0.208-0.052,0.304,0.078,0.304,0.2c0,0.104-0.061,0.164-0.156,0.208
				c-0.252,0.113-0.756,0.183-1.129,0.183c-1.451,0-2.398-0.982-2.398-2.32c0-1.355,0.973-2.337,2.364-2.337
				C188.218,42.089,188.679,42.159,188.939,42.263z"/>
			<path fill="#3D3D3D" d="M190.687,41.047c0.017-0.139,0.113-0.217,0.243-0.217c0.147,0,0.226,0.095,0.226,0.234v1.094h1.13
				c0.165,0,0.243,0.079,0.243,0.2c0,0.113-0.079,0.208-0.243,0.208h-1.13v2.85c0,0.695,0.2,0.895,0.73,0.895
				c0.165,0,0.278-0.035,0.374-0.052c0.13-0.026,0.26,0.035,0.26,0.19c0,0.069-0.035,0.157-0.147,0.2
				c-0.165,0.061-0.365,0.096-0.6,0.096c-0.86,0-1.155-0.435-1.155-1.356v-2.823h-0.487c-0.139,0-0.217-0.061-0.217-0.182
				c0-0.096,0.052-0.157,0.174-0.174l0.53-0.053L190.687,41.047z"/>
			<path fill="#3D3D3D" d="M194.171,42.159c0.139,0,0.243,0.096,0.243,0.244v4.022c0,0.174-0.13,0.278-0.269,0.278
				c-0.156,0-0.27-0.096-0.27-0.278v-3.753l-0.295-0.078c-0.131-0.035-0.192-0.112-0.192-0.225c0-0.131,0.096-0.209,0.235-0.209
				H194.171z M193.771,40.952c0-0.226,0.165-0.331,0.339-0.331c0.183,0,0.348,0.104,0.348,0.331v0.2
				c0,0.226-0.165,0.321-0.348,0.321c-0.174,0-0.339-0.096-0.339-0.321V40.952z"/>
			<path fill="#3D3D3D" d="M198.897,42.368c0.052-0.166,0.148-0.235,0.261-0.235c0.148,0,0.278,0.086,0.278,0.252
				c0,0.043-0.017,0.096-0.035,0.147l-1.434,3.858c-0.078,0.217-0.226,0.312-0.408,0.312s-0.33-0.096-0.408-0.312l-1.434-3.858
				c-0.017-0.051-0.035-0.104-0.035-0.147c0-0.166,0.13-0.252,0.278-0.252c0.113,0,0.209,0.069,0.261,0.235l1.329,3.683h0.018
				L198.897,42.368z"/>
			<path fill="#3D3D3D" d="M203.38,43.593c0-0.853-0.529-1.078-1.276-1.078c-0.469,0-0.852,0.078-1.26,0.174
				c-0.174,0.043-0.278-0.052-0.296-0.174c-0.017-0.122,0.069-0.208,0.2-0.252c0.426-0.122,0.938-0.174,1.425-0.174
				c1.103,0,1.746,0.409,1.746,1.468v2.415c0,0.296,0.2,0.235,0.374,0.235c0.113,0,0.2,0.061,0.2,0.217
				c0,0.104-0.061,0.166-0.139,0.208c-0.122,0.061-0.252,0.07-0.392,0.07c-0.278,0-0.564-0.139-0.564-0.521v-0.331
				c-0.243,0.556-0.869,0.895-1.694,0.895c-0.833,0-1.581-0.391-1.581-1.356c0-1.06,0.913-1.425,1.981-1.425
				c0.59,0,1.164,0.096,1.276,0.105V43.593z M203.38,44.461c-0.069-0.017-0.617-0.113-1.233-0.113c-0.721,0-1.477,0.208-1.477,1.007
				c0,0.678,0.539,0.965,1.138,0.965c0.852,0,1.572-0.591,1.572-1.304V44.461z"/>
		</g>
	</g>
</g>
<g id="Isolation_Mode">
</g>
</svg>
